<?xml version="1.0" encoding="UTF-8"?>
<svg id="Layer_1" data-name="Layer 1" xmlns="http://www.w3.org/2000/svg" viewBox="0 0 1000 1500">
  <defs>
    <style>
      .cls-1 {
        fill: #fff;
      }

      .cls-2 {
        fill: #00478f;
      }
    </style>
  </defs>
  <circle class="cls-1" cx="499.99" cy="750" r="493"/>
  <g>
    <path d="M499.98,1172.44c-217.27,0-396.73-164.89-419.88-376.1h-31.44c10.45,103.67,55.87,199.78,130.54,274.45,85.69,85.69,199.61,132.88,320.79,132.88s235.1-47.19,320.79-132.88c74.67-74.67,120.09-170.78,130.54-274.45h-31.44c-23.15,211.21-202.61,376.1-419.89,376.1Z"/>
    <path d="M499.98,327.56c226.89,0,412.54,179.8,422.03,404.39h31.26c-4.45-114.41-51.07-221.33-132.49-302.75-85.69-85.69-199.61-132.87-320.79-132.87s-235.1,47.19-320.79,132.88c-81.42,81.42-128.05,188.34-132.49,302.75h31.26c9.49-224.59,195.14-404.39,422.03-404.39Z"/>
    <path class="cls-2" d="M992.99,748.94c.1,11.87-.19,23.16-.86,30.42h-188.09s-56.37,187.9-56.37,187.9l-146.03-432.52-206.21,549.75-125-401.15-43.2,96.02H7.85c-.64-9.98-.9-20.36-.86-30.42h190.6s80.03-177.79,80.03-177.79l121.49,389.85,204.61-545.47,141.55,419.33,25.81-85.91h221.9Z"/>
  </g>
</svg>
